<?xml version="1.0" encoding="UTF-8"?>
<svg xmlns="http://www.w3.org/2000/svg" xmlns:xlink="http://www.w3.org/1999/xlink" width="52pt" height="52pt" viewBox="0 0 52 52" version="1.1">
<g id="surface1856921">
<path style=" stroke:none;fill-rule:nonzero;fill:rgb(100%,100%,100%);fill-opacity:1;" d="M 25.8125 -0.0625 C 25.726562 -0.046875 25.640625 -0.0234375 25.5625 0 C 24.632812 0.210938 23.976562 1.046875 24 2 L 24 8 C 23.992188 8.71875 24.367188 9.390625 24.992188 9.757812 C 25.617188 10.117188 26.382812 10.117188 27.007812 9.757812 C 27.632812 9.390625 28.007812 8.71875 28 8 L 28 2 C 28.023438 1.421875 27.789062 0.867188 27.375 0.476562 C 26.953125 0.078125 26.382812 -0.117188 25.8125 -0.0625 Z M 13.6875 3.1875 C 13.023438 3.28125 12.453125 3.703125 12.164062 4.304688 C 11.875 4.90625 11.90625 5.609375 12.25 6.1875 L 15.25 11.4375 C 15.804688 12.40625 17.03125 12.742188 18 12.1875 C 18.96875 11.632812 19.304688 10.40625 18.75 9.4375 L 15.75 4.1875 C 15.34375 3.453125 14.515625 3.054688 13.6875 3.1875 Z M 37.625 3.1875 C 37.039062 3.296875 36.539062 3.664062 36.25 4.1875 L 33.25 9.4375 C 32.695312 10.40625 33.03125 11.632812 34 12.1875 C 34.96875 12.742188 36.195312 12.40625 36.75 11.4375 L 39.75 6.1875 C 40.132812 5.539062 40.117188 4.726562 39.703125 4.09375 C 39.296875 3.460938 38.5625 3.109375 37.8125 3.1875 C 37.75 3.1875 37.6875 3.1875 37.625 3.1875 Z M 46.6875 11.9375 C 46.625 11.953125 46.5625 11.976562 46.5 12 C 46.257812 12.039062 46.023438 12.125 45.8125 12.25 L 40.5625 15.25 C 39.59375 15.804688 39.257812 17.03125 39.8125 18 C 40.367188 18.96875 41.59375 19.304688 42.5625 18.75 L 47.8125 15.75 C 48.75 15.351562 49.242188 14.320312 48.953125 13.34375 C 48.664062 12.367188 47.6875 11.757812 46.6875 11.9375 Z M 4.875 12 C 4.007812 12.109375 3.320312 12.765625 3.15625 13.625 C 3 14.484375 3.421875 15.34375 4.1875 15.75 L 9.4375 18.75 C 10.40625 19.304688 11.632812 18.96875 12.1875 18 C 12.742188 17.03125 12.40625 15.804688 11.4375 15.25 L 6.1875 12.25 C 5.789062 12.015625 5.328125 11.929688 4.875 12 Z M 26 12 C 18.265625 12 12 18.265625 12 26 C 12 33.734375 18.265625 40 26 40 C 33.734375 40 40 33.734375 40 26 C 40 18.265625 33.734375 12 26 12 Z M 26 16 C 31.515625 16 36 20.484375 36 26 C 36 31.515625 31.515625 36 26 36 C 20.484375 36 16 31.515625 16 26 C 16 20.484375 20.484375 16 26 16 Z M 1.4375 24 C 0.335938 24.15625 -0.4375 25.179688 -0.28125 26.28125 C -0.125 27.382812 0.898438 28.15625 2 28 L 8 28 C 8.71875 28.007812 9.390625 27.632812 9.757812 27.007812 C 10.117188 26.382812 10.117188 25.617188 9.757812 24.992188 C 9.390625 24.367188 8.71875 23.992188 8 24 L 2 24 C 1.9375 24 1.875 24 1.8125 24 C 1.75 24 1.6875 24 1.625 24 C 1.5625 24 1.5 24 1.4375 24 Z M 43.4375 24 C 42.335938 24.15625 41.5625 25.179688 41.71875 26.28125 C 41.875 27.382812 42.898438 28.15625 44 28 L 50 28 C 50.71875 28.007812 51.390625 27.632812 51.757812 27.007812 C 52.117188 26.382812 52.117188 25.617188 51.757812 24.992188 C 51.390625 24.367188 50.71875 23.992188 50 24 L 44 24 C 43.9375 24 43.875 24 43.8125 24 C 43.75 24 43.6875 24 43.625 24 C 43.5625 24 43.5 24 43.4375 24 Z M 10.3125 32.9375 C 10.25 32.953125 10.1875 32.976562 10.125 33 C 9.882812 33.039062 9.648438 33.125 9.4375 33.25 L 4.1875 36.25 C 3.21875 36.804688 2.882812 38.03125 3.4375 39 C 3.992188 39.96875 5.21875 40.304688 6.1875 39.75 L 11.4375 36.75 C 12.375 36.351562 12.867188 35.320312 12.578125 34.34375 C 12.289062 33.367188 11.3125 32.757812 10.3125 32.9375 Z M 41.25 33 C 40.382812 33.109375 39.695312 33.765625 39.53125 34.625 C 39.375 35.484375 39.796875 36.34375 40.5625 36.75 L 45.8125 39.75 C 46.78125 40.304688 48.007812 39.96875 48.5625 39 C 49.117188 38.03125 48.78125 36.804688 47.8125 36.25 L 42.5625 33.25 C 42.164062 33.015625 41.703125 32.929688 41.25 33 Z M 16.625 39.5625 C 16.039062 39.671875 15.539062 40.039062 15.25 40.5625 L 12.25 45.8125 C 11.695312 46.78125 12.03125 48.007812 13 48.5625 C 13.96875 49.117188 15.195312 48.78125 15.75 47.8125 L 18.75 42.5625 C 19.132812 41.914062 19.117188 41.101562 18.703125 40.46875 C 18.296875 39.835938 17.5625 39.484375 16.8125 39.5625 C 16.75 39.5625 16.6875 39.5625 16.625 39.5625 Z M 34.6875 39.5625 C 34.023438 39.65625 33.453125 40.078125 33.164062 40.679688 C 32.875 41.28125 32.90625 41.984375 33.25 42.5625 L 36.25 47.8125 C 36.804688 48.78125 38.03125 49.117188 39 48.5625 C 39.96875 48.007812 40.304688 46.78125 39.75 45.8125 L 36.75 40.5625 C 36.34375 39.828125 35.515625 39.429688 34.6875 39.5625 Z M 25.8125 41.9375 C 25.726562 41.953125 25.640625 41.976562 25.5625 42 C 24.632812 42.210938 23.976562 43.046875 24 44 L 24 50 C 23.992188 50.71875 24.367188 51.390625 24.992188 51.757812 C 25.617188 52.117188 26.382812 52.117188 27.007812 51.757812 C 27.632812 51.390625 28.007812 50.71875 28 50 L 28 44 C 28.023438 43.421875 27.789062 42.867188 27.375 42.476562 C 26.953125 42.078125 26.382812 41.882812 25.8125 41.9375 Z M 25.8125 41.9375 "/>
</g>
</svg>
